<svg xmlns="http://www.w3.org/2000/svg" viewBox="0 0 256 256">
  <defs>
    <linearGradient id="grad" x1="0%" y1="0%" x2="100%" y2="100%">
      <stop offset="0%" style="stop-color:#0066FF;stop-opacity:1" />
      <stop offset="100%" style="stop-color:#9933FF;stop-opacity:1" />
    </linearGradient>
  </defs>
  <rect width="256" height="256" fill="#0A0A0A" rx="32"/>
  <path d="M60 100 L80 60 L100 100 M70 85 L90 85" stroke="url(#grad)" stroke-width="8" fill="none" stroke-linecap="round" stroke-linejoin="round"/>
  <path d="M120 60 L160 60 M140 60 L140 100" stroke="url(#grad)" stroke-width="8" fill="none" stroke-linecap="round" stroke-linejoin="round"/>
  <path d="M180 60 Q200 60 200 80 Q200 90 190 95 Q200 100 200 110 Q200 130 180 130 L180 60 M180 70 L190 70 Q195 70 195 80 Q195 85 190 85 L180 85 M180 95 L190 95 Q195 95 195 110 Q195 120 190 120 L180 120" stroke="url(#grad)" stroke-width="8" fill="none" stroke-linecap="round" stroke-linejoin="round"/>
  <circle cx="128" cy="180" r="8" fill="url(#grad)"/>
  <circle cx="100" cy="200" r="6" fill="url(#grad)"/>
  <circle cx="156" cy="200" r="6" fill="url(#grad)"/>
</svg>